<svg id="visual" viewBox="0 0 900 600" width="900" height="600" xmlns="http://www.w3.org/2000/svg" xmlns:xlink="http://www.w3.org/1999/xlink" version="1.1"><rect x="0" y="0" width="900" height="600" fill="#002233"></rect>
<path d="M0 563L30 567.7C60 572.3 120 581.7 180 579C240 576.3 300 561.7 360 558.8C420 556 480 565 540 571.5C600 578 660 582 720 583.8C780 585.7 840 585.3 870 585.2L900 585L900 601L870 601C840 601 780 601 720 601C660 601 600 601 540 601C480 601 420 601 360 601C300 601 240 601 180 601C120 601 60 601 30 601L0 601Z" fill="#FFFFFF" stroke-linecap="round" stroke-linejoin="miter"></path></svg>