<svg id="visual" viewBox="0 0 900 600" width="900" height="600" xmlns="http://www.w3.org/2000/svg" xmlns:xlink="http://www.w3.org/1999/xlink" version="1.1"><rect x="0" y="0" width="900" height="600" fill="#002233"></rect>
<path d="M0 497L30 492.2C60 487.3 120 477.7 180 474.2C240 470.7 300 473.3 360 485.5C420 497.7 480 519.3 540 531.7C600 544 660 547 720 542.2C780 537.3 840 524.7 870 518.3L900 512L900 601L870 601C840 601 780 601 720 601C660 601 600 601 540 601C480 601 420 601 360 601C300 601 240 601 180 601C120 601 60 601 30 601L0 601Z" fill="#FFFFFF" stroke-linecap="round" stroke-linejoin="miter"></path>
</svg>